<?xml version="1.0" encoding="utf-8"?>
<!-- Generator: Adobe Illustrator 26.2.1, SVG Export Plug-In . SVG Version: 6.00 Build 0)  -->
<svg version="1.1" id="圖層_1" xmlns="http://www.w3.org/2000/svg" xmlns:xlink="http://www.w3.org/1999/xlink" x="0px" y="0px"
	 viewBox="0 0 48.2 42.5" enable-background="new 0 0 48.2 42.5" xml:space="preserve">
<g>
	<g>
		<path fill="#7C7B7B" d="M24.1,1.3c-11,0-20,9-20,20s9,20,20,20s20-9,20-20S35.1,1.3,24.1,1.3L24.1,1.3z"/>
		<g>
			<path fill="#FFFFFF" d="M12.3,33.2l1.7-6.3c-1-1.7-1.5-3.7-1.5-5.7c0-6.5,5.3-11.7,11.7-11.7c6.5,0,11.7,5.3,11.7,11.7
				c0,6.5-5.3,11.7-11.7,11.7c-1.9,0-3.9-0.5-5.6-1.4L12.3,33.2z M19,29.1l0.4,0.2c1.5,0.9,3.2,1.3,4.9,1.3c5.2,0,9.5-4.3,9.5-9.5
				s-4.3-9.5-9.5-9.5s-9.5,4.3-9.5,9.5c0,1.7,0.5,3.4,1.4,4.9l0.2,0.4l-0.9,3.5L19,29.1z"/>
			<path fill-rule="evenodd" clip-rule="evenodd" fill="#FFFFFF" d="M28.6,22.8c-0.5-0.3-1.1-0.6-1.7-0.4c-0.4,0.2-0.7,0.9-1,1.2
				c-0.1,0.2-0.3,0.2-0.5,0.1c-1.6-0.7-2.9-1.7-3.8-3.2c-0.2-0.2-0.1-0.4,0.1-0.6c0.3-0.3,0.6-0.7,0.7-1.1s-0.1-0.9-0.3-1.3
				c-0.2-0.5-0.5-1.2-1-1.5s-1.1-0.1-1.5,0.2c-0.7,0.6-1,1.5-1,2.3c0,0.3,0,0.5,0.1,0.7c0.1,0.6,0.4,1.1,0.7,1.6
				c0.2,0.4,0.5,0.8,0.7,1.1c0.9,1.2,2,2.2,3.2,3c0.6,0.4,1.3,0.7,2,1c0.8,0.3,1.5,0.5,2.3,0.4c0.9-0.2,1.8-0.7,2.1-1.6
				c0.1-0.3,0.2-0.5,0.1-0.8C29.8,23.4,29,23.1,28.6,22.8z"/>
		</g>
	</g>
</g>
</svg>
