<?xml version="1.0" encoding="utf-8"?>
<!-- Generator: Adobe Illustrator 26.2.1, SVG Export Plug-In . SVG Version: 6.00 Build 0)  -->
<svg version="1.1" id="圖層_1" xmlns="http://www.w3.org/2000/svg" xmlns:xlink="http://www.w3.org/1999/xlink" x="0px" y="0px"
	 viewBox="0 0 48.2 42.5" enable-background="new 0 0 48.2 42.5" xml:space="preserve">
<g>
	<path fill="#7C7B7B" d="M24.6,1.1c-11,0-20,9-20,20s9,20,20,20s20-9,20-20S35.6,1.1,24.6,1.1L24.6,1.1z"/>
	<g>
		<g>
			<path fill="#FFFFFF" d="M30.9,13.4c-0.8,0-1.4,0.6-1.4,1.4c0,0.8,0.6,1.4,1.4,1.4s1.4-0.6,1.4-1.4C32.3,14.1,31.6,13.4,30.9,13.4
				z"/>
			<path fill="#FFFFFF" d="M24.7,15.2c-3.2,0-5.8,2.6-5.8,5.8s2.6,5.8,5.8,5.8s5.8-2.6,5.8-5.8C30.5,17.8,27.9,15.2,24.7,15.2z
				 M24.7,24.8c-2.1,0-3.7-1.7-3.7-3.7s1.7-3.7,3.7-3.7c2.1,0,3.7,1.7,3.7,3.7S26.8,24.8,24.7,24.8z"/>
			<path fill="#FFFFFF" d="M29.3,32.9h-9.5c-3.9,0-7.1-3.2-7.1-7.1v-9.5c0-3.9,3.2-7.1,7.1-7.1h9.5c3.9,0,7.1,3.2,7.1,7.1v9.5
				C36.5,29.7,33.3,32.9,29.3,32.9z M19.9,11.4c-2.7,0-4.9,2.2-4.9,4.9v9.5c0,2.7,2.2,4.9,4.9,4.9h9.5c2.7,0,4.9-2.2,4.9-4.9v-9.5
				c0-2.7-2.2-4.9-4.9-4.9H19.9z"/>
		</g>
	</g>
</g>
</svg>
