<?xml version="1.0" encoding="utf-8"?>
<!-- Generator: Adobe Illustrator 26.2.1, SVG Export Plug-In . SVG Version: 6.00 Build 0)  -->
<svg version="1.1" id="圖層_1" xmlns="http://www.w3.org/2000/svg" xmlns:xlink="http://www.w3.org/1999/xlink" x="0px" y="0px"
	 viewBox="0 0 48.2 42.5" enable-background="new 0 0 48.2 42.5" xml:space="preserve">
<g id="Mail_2_1_">
	<path fill="#7C7B7B" d="M42.2,3.9H6c-3.3,0-6,2.7-6,6v22.6c0,3.3,2.7,6,6,6h36.1c3.3,0,6-2.7,6-6V10C48.2,6.6,45.5,3.9,42.2,3.9z
		 M45.2,32.6c0,1.7-1.4,3-3,3H6c-1.7,0-3-1.4-3-3V10c0-1.7,1.4-3,3-3h36.1c1.7,0,3,1.4,3,3V32.6z"/>
	<path fill="#7C7B7B" d="M41.8,12c-0.5-0.6-1.5-0.7-2.1-0.2L24.1,24.6L8.5,11.8c-0.6-0.5-1.6-0.4-2.1,0.2c-0.5,0.6-0.4,1.6,0.2,2.1
		l16.6,13.6c0.3,0.2,0.6,0.3,1,0.3c0.3,0,0.7-0.1,1-0.3l16.6-13.6C42.3,13.6,42.4,12.7,41.8,12z"/>
</g>
</svg>
