<?xml version="1.0" encoding="utf-8"?>
<!-- Generator: Adobe Illustrator 26.2.1, SVG Export Plug-In . SVG Version: 6.00 Build 0)  -->
<svg version="1.1" id="圖層_1" xmlns="http://www.w3.org/2000/svg" xmlns:xlink="http://www.w3.org/1999/xlink" x="0px" y="0px"
	 viewBox="0 0 48.2 42.5" enable-background="new 0 0 48.2 42.5" xml:space="preserve">
<g id="Smartphone_1_">
	<path fill="#7C7B7B" d="M32,1.3H16.1c-2.5,0-4.5,2-4.5,4.5v30.9c0,2.5,2,4.5,4.5,4.5H32c2.5,0,4.5-2,4.5-4.5V5.8
		C36.6,3.3,34.5,1.3,32,1.3z M34.3,36.7c0,1.3-1,2.3-2.3,2.3H16.1c-1.3,0-2.3-1-2.3-2.3V5.8c0-1.3,1-2.3,2.3-2.3H32
		c1.3,0,2.3,1,2.3,2.3V36.7z"/>
	<path fill="#7C7B7B" d="M32,8.1H16.1c-0.6,0-1.1,0.5-1.1,1.1c0,0.6,0.5,1.1,1.1,1.1H32c0.6,0,1.1-0.5,1.1-1.1
		C33.2,8.6,32.7,8.1,32,8.1z"/>
	<path fill="#7C7B7B" d="M32,31H16.1c-0.6,0-1.1,0.5-1.1,1.1c0,0.6,0.5,1.1,1.1,1.1H32c0.6,0,1.1-0.5,1.1-1.1
		C33.2,31.6,32.7,31,32,31z"/>
	<path fill="#7C7B7B" d="M21.8,6.9h4.5c0.6,0,1.1-0.5,1.1-1.1S27,4.7,26.4,4.7h-4.5c-0.6,0-1.1,0.5-1.1,1.1S21.2,6.9,21.8,6.9z"/>
	<path fill="#7C7B7B" d="M24.1,34.4c-0.9,0-1.7,0.8-1.7,1.7c0,0.9,0.8,1.7,1.7,1.7c0.9,0,1.7-0.8,1.7-1.7
		C25.8,35.2,25,34.4,24.1,34.4z"/>
</g>
</svg>
