<?xml version="1.0" encoding="utf-8"?>
<!-- Generator: Adobe Illustrator 26.2.1, SVG Export Plug-In . SVG Version: 6.00 Build 0)  -->
<svg version="1.1" id="圖層_1" xmlns="http://www.w3.org/2000/svg" xmlns:xlink="http://www.w3.org/1999/xlink" x="0px" y="0px"
	 viewBox="0 0 48.2 42.5" enable-background="new 0 0 48.2 42.5" xml:space="preserve">
<g id="Map_pin_1_">
	<path fill="#7C7B7B" d="M24.1,1.3C15.2,1.3,8,8.5,8,17.4c0,7.6,8.3,16.8,15.2,23.2l0.9,0.8l0.8-0.8c7.7-7.4,15.2-15.3,15.2-23.1
		C40.1,8.5,32.9,1.3,24.1,1.3z M24,37.9c-8.7-8.2-13.5-15.5-13.5-20.6c0-7.5,6.1-13.6,13.6-13.6s13.6,6.1,13.6,13.6
		C37.7,23.9,31,31.1,24,37.9z"/>
	<path fill="#7C7B7B" d="M24.1,11.1c-3.4,0-6.2,2.8-6.2,6.2s2.8,6.2,6.2,6.2s6.2-2.8,6.2-6.2C30.2,13.9,27.5,11.1,24.1,11.1z
		 M24.1,21c-2,0-3.7-1.7-3.7-3.7s1.7-3.7,3.7-3.7s3.7,1.7,3.7,3.7S26.1,21,24.1,21z"/>
</g>
</svg>
